<svg width="594" height="204" viewBox="0 0 594 204" fill="none" xmlns="http://www.w3.org/2000/svg">
<path d="M42.3835 146L0.76416 0.54541H34.3579L58.4346 101.611H59.642L86.2045 0.54541H114.969L141.46 101.824H142.739L166.815 0.54541H200.409L158.79 146H128.818L101.119 50.9005H99.9829L72.3551 146H42.3835Z" fill="#9498FF"/>
<path d="M227.291 146H194.337L244.55 0.54541H284.18L334.322 146H301.368L264.933 33.784H263.797L227.291 146ZM225.231 88.8267H303.072V112.832H225.231V88.8267Z" fill="#9498FF"/>
<path d="M403.392 146H351.829V0.54541H403.818C418.449 0.54541 431.044 3.45734 441.602 9.28121C452.161 15.0577 460.281 23.3674 465.963 34.2102C471.692 45.053 474.557 58.0265 474.557 73.1306C474.557 88.2822 471.692 101.303 465.963 112.193C460.281 123.083 452.114 131.44 441.46 137.264C430.854 143.088 418.165 146 403.392 146ZM382.582 119.651H402.114C411.204 119.651 418.851 118.041 425.054 114.821C431.304 111.554 435.991 106.511 439.116 99.6931C442.289 92.8276 443.875 83.9734 443.875 73.1306C443.875 62.3825 442.289 53.5994 439.116 46.7812C435.991 39.963 431.328 34.9441 425.125 31.7244C418.922 28.5047 411.276 26.8948 402.185 26.8948H382.582V119.651Z" fill="#9498FF"/>
<path d="M497.337 146V0.54541H593.644V25.9005H528.09V60.5596H587.252V85.9147H528.09V146H497.337Z" fill="#9498FF"/>
<path d="M21.5585 194L14.8789 169.454H21.7663L25.5696 185.946H25.7933L29.7563 169.454H36.5159L40.5429 185.85H40.7507L44.49 169.454H51.3615L44.6978 194H37.4907L33.272 178.563H32.9683L28.7496 194H21.5585Z" fill="#9498FF"/>
<path d="M61.8005 179.81V194H54.9929V161.273H61.6087V173.785H61.8964C62.4503 172.336 63.3452 171.202 64.581 170.381C65.8168 169.55 67.3669 169.135 69.2312 169.135C70.9358 169.135 72.4219 169.508 73.6897 170.254C74.9681 170.989 75.9589 172.049 76.662 173.434C77.3758 174.808 77.7273 176.454 77.7167 178.371V194H70.9091V179.586C70.9198 178.073 70.5363 176.896 69.7586 176.054C68.9915 175.213 67.9155 174.792 66.5306 174.792C65.6037 174.792 64.7834 174.989 64.0696 175.383C63.3665 175.777 62.8125 176.353 62.4077 177.109C62.0135 177.855 61.8111 178.755 61.8005 179.81Z" fill="#9498FF"/>
<path d="M90.0733 194.463C88.5072 194.463 87.1116 194.192 85.8865 193.648C84.6614 193.094 83.6919 192.279 82.9781 191.203C82.275 190.117 81.9234 188.764 81.9234 187.144C81.9234 185.781 82.1738 184.636 82.6745 183.709C83.1752 182.782 83.857 182.036 84.7199 181.472C85.5829 180.907 86.563 180.481 87.6603 180.193C88.7682 179.906 89.9295 179.703 91.144 179.586C92.5715 179.437 93.7221 179.298 94.5957 179.17C95.4692 179.032 96.1031 178.83 96.4973 178.563C96.8915 178.297 97.0886 177.903 97.0886 177.381V177.285C97.0886 176.273 96.769 175.49 96.1298 174.936C95.5012 174.382 94.6063 174.105 93.4451 174.105C92.2199 174.105 91.2452 174.376 90.5207 174.92C89.7963 175.452 89.3169 176.124 89.0825 176.933L82.7864 176.422C83.106 174.93 83.7345 173.641 84.672 172.555C85.6095 171.457 86.8187 170.616 88.2995 170.03C89.791 169.433 91.5168 169.135 93.4771 169.135C94.8407 169.135 96.1457 169.295 97.3922 169.614C98.6493 169.934 99.7626 170.429 100.732 171.1C101.712 171.772 102.485 172.635 103.049 173.689C103.614 174.733 103.896 175.985 103.896 177.445V194H97.4401V190.596H97.2484C96.8542 191.363 96.3268 192.04 95.6663 192.626C95.0058 193.201 94.2121 193.654 93.2853 193.984C92.3584 194.304 91.2878 194.463 90.0733 194.463ZM92.0229 189.765C93.0243 189.765 93.9085 189.568 94.6756 189.174C95.4426 188.769 96.0445 188.226 96.4813 187.544C96.9181 186.862 97.1365 186.09 97.1365 185.227V182.622C96.9234 182.761 96.6305 182.888 96.2576 183.006C95.8954 183.112 95.4852 183.213 95.0271 183.309C94.569 183.394 94.1109 183.474 93.6528 183.549C93.1947 183.613 92.7792 183.671 92.4064 183.725C91.6074 183.842 90.9096 184.028 90.313 184.284C89.7164 184.54 89.253 184.886 88.9227 185.323C88.5925 185.749 88.4273 186.282 88.4273 186.921C88.4273 187.848 88.7629 188.556 89.4341 189.046C90.1159 189.526 90.9788 189.765 92.0229 189.765Z" fill="#9498FF"/>
<path d="M122.233 169.454V174.568H107.452V169.454H122.233ZM110.807 163.574H117.615V186.457C117.615 187.086 117.711 187.576 117.903 187.928C118.094 188.268 118.361 188.508 118.702 188.647C119.053 188.785 119.458 188.854 119.916 188.854C120.236 188.854 120.555 188.828 120.875 188.774C121.195 188.711 121.44 188.663 121.61 188.631L122.681 193.696C122.34 193.803 121.86 193.925 121.243 194.064C120.625 194.213 119.874 194.304 118.989 194.336C117.349 194.399 115.91 194.181 114.675 193.68C113.45 193.18 112.496 192.402 111.814 191.347C111.132 190.293 110.797 188.961 110.807 187.352V163.574Z" fill="#9498FF"/>
<path d="M144.082 194.463C142.516 194.463 141.12 194.192 139.895 193.648C138.67 193.094 137.701 192.279 136.987 191.203C136.284 190.117 135.932 188.764 135.932 187.144C135.932 185.781 136.183 184.636 136.683 183.709C137.184 182.782 137.866 182.036 138.729 181.472C139.592 180.907 140.572 180.481 141.669 180.193C142.777 179.906 143.938 179.703 145.153 179.586C146.58 179.437 147.731 179.298 148.604 179.17C149.478 179.032 150.112 178.83 150.506 178.563C150.9 178.297 151.097 177.903 151.097 177.381V177.285C151.097 176.273 150.778 175.49 150.139 174.936C149.51 174.382 148.615 174.105 147.454 174.105C146.229 174.105 145.254 174.376 144.53 174.92C143.805 175.452 143.326 176.124 143.091 176.933L136.795 176.422C137.115 174.93 137.743 173.641 138.681 172.555C139.618 171.457 140.827 170.616 142.308 170.03C143.8 169.433 145.526 169.135 147.486 169.135C148.849 169.135 150.155 169.295 151.401 169.614C152.658 169.934 153.771 170.429 154.741 171.1C155.721 171.772 156.493 172.635 157.058 173.689C157.623 174.733 157.905 175.985 157.905 177.445V194H151.449V190.596H151.257C150.863 191.363 150.336 192.04 149.675 192.626C149.015 193.201 148.221 193.654 147.294 193.984C146.367 194.304 145.297 194.463 144.082 194.463ZM146.032 189.765C147.033 189.765 147.917 189.568 148.684 189.174C149.451 188.769 150.053 188.226 150.49 187.544C150.927 186.862 151.145 186.09 151.145 185.227V182.622C150.932 182.761 150.639 182.888 150.266 183.006C149.904 183.112 149.494 183.213 149.036 183.309C148.578 183.394 148.12 183.474 147.662 183.549C147.204 183.613 146.788 183.671 146.415 183.725C145.616 183.842 144.918 184.028 144.322 184.284C143.725 184.54 143.262 184.886 142.932 185.323C142.601 185.749 142.436 186.282 142.436 186.921C142.436 187.848 142.772 188.556 143.443 189.046C144.125 189.526 144.988 189.765 146.032 189.765Z" fill="#9498FF"/>
<path d="M163.314 194V161.273H170.122V173.577H170.329C170.628 172.917 171.059 172.246 171.624 171.564C172.199 170.871 172.945 170.296 173.861 169.838C174.788 169.369 175.938 169.135 177.313 169.135C179.103 169.135 180.754 169.604 182.267 170.541C183.779 171.468 184.989 172.869 185.894 174.744C186.8 176.608 187.252 178.947 187.252 181.759C187.252 184.497 186.81 186.809 185.926 188.695C185.052 190.57 183.859 191.992 182.346 192.961C180.844 193.92 179.161 194.399 177.297 194.399C175.976 194.399 174.852 194.181 173.925 193.744C173.009 193.307 172.258 192.759 171.672 192.098C171.086 191.427 170.638 190.751 170.329 190.069H170.026V194H163.314ZM169.978 181.727C169.978 183.187 170.18 184.46 170.585 185.546C170.99 186.633 171.576 187.48 172.343 188.087C173.11 188.684 174.042 188.982 175.139 188.982C176.247 188.982 177.185 188.679 177.952 188.071C178.719 187.453 179.3 186.601 179.694 185.515C180.099 184.417 180.301 183.155 180.301 181.727C180.301 180.31 180.104 179.064 179.71 177.988C179.316 176.912 178.735 176.07 177.968 175.463C177.201 174.856 176.258 174.552 175.139 174.552C174.031 174.552 173.094 174.845 172.327 175.431C171.571 176.017 170.99 176.848 170.585 177.924C170.18 179 169.978 180.268 169.978 181.727Z" fill="#9498FF"/>
<path d="M202.885 194.479C200.403 194.479 198.256 193.952 196.445 192.897C194.644 191.832 193.254 190.351 192.274 188.455C191.294 186.548 190.804 184.337 190.804 181.823C190.804 179.288 191.294 177.072 192.274 175.175C193.254 173.268 194.644 171.788 196.445 170.733C198.256 169.668 200.403 169.135 202.885 169.135C205.367 169.135 207.508 169.668 209.309 170.733C211.12 171.788 212.516 173.268 213.496 175.175C214.476 177.072 214.966 179.288 214.966 181.823C214.966 184.337 214.476 186.548 213.496 188.455C212.516 190.351 211.12 191.832 209.309 192.897C207.508 193.952 205.367 194.479 202.885 194.479ZM202.917 189.206C204.046 189.206 204.989 188.886 205.745 188.247C206.502 187.597 207.072 186.713 207.455 185.594C207.849 184.476 208.046 183.203 208.046 181.775C208.046 180.348 207.849 179.075 207.455 177.956C207.072 176.837 206.502 175.953 205.745 175.303C204.989 174.653 204.046 174.328 202.917 174.328C201.777 174.328 200.818 174.653 200.04 175.303C199.273 175.953 198.693 176.837 198.299 177.956C197.915 179.075 197.723 180.348 197.723 181.775C197.723 183.203 197.915 184.476 198.299 185.594C198.693 186.713 199.273 187.597 200.04 188.247C200.818 188.886 201.777 189.206 202.917 189.206Z" fill="#9498FF"/>
<path d="M235.133 183.549V169.454H241.94V194H235.404V189.542H235.149C234.595 190.98 233.673 192.136 232.384 193.009C231.106 193.883 229.545 194.32 227.702 194.32C226.061 194.32 224.618 193.947 223.371 193.201C222.125 192.455 221.15 191.395 220.447 190.021C219.755 188.647 219.403 187.001 219.392 185.083V169.454H226.2V183.869C226.211 185.317 226.599 186.463 227.366 187.304C228.133 188.146 229.162 188.567 230.451 188.567C231.271 188.567 232.038 188.38 232.752 188.007C233.466 187.624 234.041 187.059 234.478 186.314C234.925 185.568 235.143 184.646 235.133 183.549Z" fill="#9498FF"/>
<path d="M260.441 169.454V174.568H245.66V169.454H260.441ZM249.015 163.574H255.823V186.457C255.823 187.086 255.919 187.576 256.111 187.928C256.302 188.268 256.569 188.508 256.91 188.647C257.261 188.785 257.666 188.854 258.124 188.854C258.444 188.854 258.763 188.828 259.083 188.774C259.403 188.711 259.648 188.663 259.818 188.631L260.889 193.696C260.548 193.803 260.068 193.925 259.451 194.064C258.833 194.213 258.082 194.304 257.197 194.336C255.557 194.399 254.118 194.181 252.883 193.68C251.658 193.18 250.704 192.402 250.022 191.347C249.34 190.293 249.005 188.961 249.015 187.352V163.574Z" fill="#9498FF"/>
<path d="M284.336 194.399C282.471 194.399 280.783 193.92 279.27 192.961C277.768 191.992 276.575 190.57 275.69 188.695C274.817 186.809 274.38 184.497 274.38 181.759C274.38 178.947 274.833 176.608 275.738 174.744C276.644 172.869 277.848 171.468 279.35 170.541C280.863 169.604 282.519 169.135 284.32 169.135C285.694 169.135 286.839 169.369 287.755 169.838C288.682 170.296 289.428 170.871 289.992 171.564C290.568 172.246 291.005 172.917 291.303 173.577H291.511V161.273H298.302V194H291.591V190.069H291.303C290.983 190.751 290.53 191.427 289.945 192.098C289.369 192.759 288.618 193.307 287.691 193.744C286.775 194.181 285.657 194.399 284.336 194.399ZM286.493 188.982C287.59 188.982 288.517 188.684 289.273 188.087C290.04 187.48 290.626 186.633 291.031 185.546C291.447 184.46 291.654 183.187 291.654 181.727C291.654 180.268 291.452 179 291.047 177.924C290.642 176.848 290.056 176.017 289.289 175.431C288.522 174.845 287.59 174.552 286.493 174.552C285.374 174.552 284.431 174.856 283.664 175.463C282.897 176.07 282.317 176.912 281.923 177.988C281.528 179.064 281.331 180.31 281.331 181.727C281.331 183.155 281.528 184.417 281.923 185.515C282.327 186.601 282.908 187.453 283.664 188.071C284.431 188.679 285.374 188.982 286.493 188.982Z" fill="#9498FF"/>
<path d="M303.899 194V169.454H310.707V194H303.899ZM307.319 166.29C306.307 166.29 305.439 165.955 304.714 165.284C304 164.602 303.644 163.787 303.644 162.839C303.644 161.901 304 161.097 304.714 160.426C305.439 159.744 306.307 159.403 307.319 159.403C308.331 159.403 309.194 159.744 309.908 160.426C310.632 161.097 310.994 161.901 310.994 162.839C310.994 163.787 310.632 164.602 309.908 165.284C309.194 165.955 308.331 166.29 307.319 166.29Z" fill="#9498FF"/>
<path d="M327.218 203.716C325.013 203.716 323.122 203.412 321.545 202.805C319.979 202.208 318.733 201.393 317.806 200.36C316.879 199.327 316.277 198.165 316 196.876L322.296 196.029C322.488 196.519 322.792 196.978 323.207 197.404C323.623 197.83 324.171 198.171 324.853 198.426C325.546 198.693 326.387 198.826 327.378 198.826C328.859 198.826 330.079 198.464 331.037 197.739C332.007 197.026 332.492 195.827 332.492 194.144V189.653H332.204C331.906 190.335 331.458 190.98 330.862 191.587C330.265 192.194 329.498 192.69 328.561 193.073C327.623 193.457 326.504 193.648 325.205 193.648C323.362 193.648 321.684 193.222 320.171 192.37C318.669 191.507 317.47 190.191 316.575 188.423C315.691 186.644 315.249 184.396 315.249 181.679C315.249 178.899 315.702 176.576 316.607 174.712C317.513 172.848 318.717 171.452 320.219 170.525C321.732 169.598 323.388 169.135 325.189 169.135C326.563 169.135 327.714 169.369 328.64 169.838C329.567 170.296 330.313 170.871 330.878 171.564C331.453 172.246 331.895 172.917 332.204 173.577H332.46V169.454H339.219V194.24C339.219 196.328 338.708 198.075 337.685 199.481C336.662 200.887 335.246 201.942 333.434 202.645C331.634 203.359 329.562 203.716 327.218 203.716ZM327.362 188.535C328.459 188.535 329.386 188.263 330.143 187.72C330.91 187.166 331.496 186.377 331.9 185.355C332.316 184.321 332.524 183.086 332.524 181.647C332.524 180.209 332.321 178.963 331.916 177.908C331.511 176.843 330.926 176.017 330.159 175.431C329.391 174.845 328.459 174.552 327.362 174.552C326.243 174.552 325.301 174.856 324.534 175.463C323.766 176.06 323.186 176.891 322.792 177.956C322.398 179.021 322.2 180.252 322.2 181.647C322.2 183.064 322.398 184.289 322.792 185.323C323.197 186.345 323.777 187.139 324.534 187.704C325.301 188.258 326.243 188.535 327.362 188.535Z" fill="#9498FF"/>
<path d="M344.637 194V169.454H351.444V194H344.637ZM348.056 166.29C347.044 166.29 346.176 165.955 345.451 165.284C344.738 164.602 344.381 163.787 344.381 162.839C344.381 161.901 344.738 161.097 345.451 160.426C346.176 159.744 347.044 159.403 348.056 159.403C349.068 159.403 349.931 159.744 350.645 160.426C351.369 161.097 351.732 161.901 351.732 162.839C351.732 163.787 351.369 164.602 350.645 165.284C349.931 165.955 349.068 166.29 348.056 166.29Z" fill="#9498FF"/>
<path d="M369.953 169.454V174.568H355.171V169.454H369.953ZM358.527 163.574H365.335V186.457C365.335 187.086 365.431 187.576 365.622 187.928C365.814 188.268 366.08 188.508 366.421 188.647C366.773 188.785 367.178 188.854 367.636 188.854C367.955 188.854 368.275 188.828 368.595 188.774C368.914 188.711 369.159 188.663 369.33 188.631L370.4 193.696C370.06 193.803 369.58 193.925 368.962 194.064C368.344 194.213 367.593 194.304 366.709 194.336C365.068 194.399 363.63 194.181 362.394 193.68C361.169 193.18 360.216 192.402 359.534 191.347C358.852 190.293 358.517 188.961 358.527 187.352V163.574Z" fill="#9498FF"/>
<path d="M381.387 194.463C379.821 194.463 378.425 194.192 377.2 193.648C375.975 193.094 375.005 192.279 374.292 191.203C373.588 190.117 373.237 188.764 373.237 187.144C373.237 185.781 373.487 184.636 373.988 183.709C374.489 182.782 375.17 182.036 376.033 181.472C376.896 180.907 377.876 180.481 378.974 180.193C380.082 179.906 381.243 179.703 382.457 179.586C383.885 179.437 385.036 179.298 385.909 179.17C386.783 179.032 387.417 178.83 387.811 178.563C388.205 178.297 388.402 177.903 388.402 177.381V177.285C388.402 176.273 388.082 175.49 387.443 174.936C386.815 174.382 385.92 174.105 384.759 174.105C383.533 174.105 382.559 174.376 381.834 174.92C381.11 175.452 380.63 176.124 380.396 176.933L374.1 176.422C374.419 174.93 375.048 173.641 375.985 172.555C376.923 171.457 378.132 170.616 379.613 170.03C381.104 169.433 382.83 169.135 384.791 169.135C386.154 169.135 387.459 169.295 388.706 169.614C389.963 169.934 391.076 170.429 392.046 171.1C393.026 171.772 393.798 172.635 394.363 173.689C394.927 174.733 395.21 175.985 395.21 177.445V194H388.754V190.596H388.562C388.168 191.363 387.64 192.04 386.98 192.626C386.319 193.201 385.526 193.654 384.599 193.984C383.672 194.304 382.601 194.463 381.387 194.463ZM383.336 189.765C384.338 189.765 385.222 189.568 385.989 189.174C386.756 188.769 387.358 188.226 387.795 187.544C388.232 186.862 388.45 186.09 388.45 185.227V182.622C388.237 182.761 387.944 182.888 387.571 183.006C387.209 183.112 386.799 183.213 386.341 183.309C385.883 183.394 385.424 183.474 384.966 183.549C384.508 183.613 384.093 183.671 383.72 183.725C382.921 183.842 382.223 184.028 381.626 184.284C381.03 184.54 380.566 184.886 380.236 185.323C379.906 185.749 379.741 186.282 379.741 186.921C379.741 187.848 380.076 188.556 380.748 189.046C381.429 189.526 382.292 189.765 383.336 189.765Z" fill="#9498FF"/>
<path d="M407.299 161.273V194H400.491V161.273H407.299Z" fill="#9498FF"/>
<path d="M436.366 169.454V174.568H421.217V169.454H436.366ZM424.685 194V167.681C424.685 165.902 425.031 164.426 425.724 163.254C426.427 162.082 427.386 161.203 428.6 160.618C429.814 160.032 431.194 159.739 432.739 159.739C433.783 159.739 434.736 159.818 435.599 159.978C436.473 160.138 437.123 160.282 437.549 160.41L436.334 165.523C436.068 165.438 435.738 165.358 435.344 165.284C434.96 165.209 434.566 165.172 434.161 165.172C433.16 165.172 432.462 165.406 432.068 165.875C431.674 166.333 431.476 166.978 431.476 167.809V194H424.685Z" fill="#9498FF"/>
<path d="M446.646 194.463C445.079 194.463 443.684 194.192 442.459 193.648C441.234 193.094 440.264 192.279 439.55 191.203C438.847 190.117 438.496 188.764 438.496 187.144C438.496 185.781 438.746 184.636 439.247 183.709C439.747 182.782 440.429 182.036 441.292 181.472C442.155 180.907 443.135 180.481 444.233 180.193C445.34 179.906 446.502 179.703 447.716 179.586C449.144 179.437 450.294 179.298 451.168 179.17C452.042 179.032 452.675 178.83 453.07 178.563C453.464 178.297 453.661 177.903 453.661 177.381V177.285C453.661 176.273 453.341 175.49 452.702 174.936C452.073 174.382 451.179 174.105 450.017 174.105C448.792 174.105 447.817 174.376 447.093 174.92C446.369 175.452 445.889 176.124 445.655 176.933L439.359 176.422C439.678 174.93 440.307 173.641 441.244 172.555C442.182 171.457 443.391 170.616 444.872 170.03C446.363 169.433 448.089 169.135 450.049 169.135C451.413 169.135 452.718 169.295 453.964 169.614C455.222 169.934 456.335 170.429 457.304 171.1C458.284 171.772 459.057 172.635 459.621 173.689C460.186 174.733 460.468 175.985 460.468 177.445V194H454.012V190.596H453.821C453.426 191.363 452.899 192.04 452.239 192.626C451.578 193.201 450.784 193.654 449.858 193.984C448.931 194.304 447.86 194.463 446.646 194.463ZM448.595 189.765C449.597 189.765 450.481 189.568 451.248 189.174C452.015 188.769 452.617 188.226 453.054 187.544C453.49 186.862 453.709 186.09 453.709 185.227V182.622C453.496 182.761 453.203 182.888 452.83 183.006C452.468 183.112 452.057 183.213 451.599 183.309C451.141 183.394 450.683 183.474 450.225 183.549C449.767 183.613 449.352 183.671 448.979 183.725C448.18 183.842 447.482 184.028 446.885 184.284C446.289 184.54 445.825 184.886 445.495 185.323C445.165 185.749 445 186.282 445 186.921C445 187.848 445.335 188.556 446.006 189.046C446.688 189.526 447.551 189.765 448.595 189.765Z" fill="#9498FF"/>
<path d="M486.172 176.454L479.94 176.837C479.834 176.305 479.605 175.825 479.253 175.399C478.901 174.962 478.438 174.616 477.863 174.36C477.298 174.094 476.622 173.961 475.833 173.961C474.779 173.961 473.889 174.185 473.165 174.632C472.44 175.069 472.078 175.655 472.078 176.39C472.078 176.976 472.312 177.471 472.781 177.876C473.25 178.281 474.054 178.606 475.194 178.851L479.637 179.746C482.023 180.236 483.802 181.024 484.974 182.111C486.146 183.197 486.732 184.625 486.732 186.393C486.732 188.002 486.258 189.414 485.309 190.628C484.372 191.843 483.083 192.791 481.442 193.473C479.812 194.144 477.932 194.479 475.801 194.479C472.552 194.479 469.963 193.803 468.035 192.45C466.117 191.086 464.993 189.233 464.663 186.889L471.359 186.537C471.561 187.528 472.051 188.284 472.829 188.806C473.607 189.318 474.603 189.573 475.817 189.573C477.01 189.573 477.969 189.344 478.694 188.886C479.429 188.418 479.802 187.816 479.812 187.081C479.802 186.463 479.541 185.957 479.029 185.562C478.518 185.158 477.73 184.849 476.664 184.636L472.413 183.789C470.016 183.309 468.232 182.478 467.06 181.296C465.899 180.113 465.318 178.606 465.318 176.773C465.318 175.197 465.744 173.838 466.597 172.698C467.46 171.559 468.669 170.68 470.224 170.062C471.79 169.444 473.623 169.135 475.721 169.135C478.822 169.135 481.261 169.79 483.04 171.1C484.83 172.411 485.874 174.195 486.172 176.454Z" fill="#9498FF"/>
<path d="M497.826 179.81V194H491.018V161.273H497.634V173.785H497.922C498.476 172.336 499.371 171.202 500.606 170.381C501.842 169.55 503.392 169.135 505.257 169.135C506.961 169.135 508.447 169.508 509.715 170.254C510.993 170.989 511.984 172.049 512.687 173.434C513.401 174.808 513.753 176.454 513.742 178.371V194H506.935V179.586C506.945 178.073 506.562 176.896 505.784 176.054C505.017 175.213 503.941 174.792 502.556 174.792C501.629 174.792 500.809 174.989 500.095 175.383C499.392 175.777 498.838 176.353 498.433 177.109C498.039 177.855 497.837 178.755 497.826 179.81Z" fill="#9498FF"/>
<path d="M519.099 194V169.454H525.907V194H519.099ZM522.519 166.29C521.507 166.29 520.639 165.955 519.914 165.284C519.201 164.602 518.844 163.787 518.844 162.839C518.844 161.901 519.201 161.097 519.914 160.426C520.639 159.744 521.507 159.403 522.519 159.403C523.531 159.403 524.394 159.744 525.108 160.426C525.832 161.097 526.195 161.901 526.195 162.839C526.195 163.787 525.832 164.602 525.108 165.284C524.394 165.955 523.531 166.29 522.519 166.29Z" fill="#9498FF"/>
<path d="M542.45 194.479C539.968 194.479 537.821 193.952 536.01 192.897C534.21 191.832 532.82 190.351 531.84 188.455C530.859 186.548 530.369 184.337 530.369 181.823C530.369 179.288 530.859 177.072 531.84 175.175C532.82 173.268 534.21 171.788 536.01 170.733C537.821 169.668 539.968 169.135 542.45 169.135C544.933 169.135 547.074 169.668 548.874 170.733C550.685 171.788 552.081 173.268 553.061 175.175C554.041 177.072 554.531 179.288 554.531 181.823C554.531 184.337 554.041 186.548 553.061 188.455C552.081 190.351 550.685 191.832 548.874 192.897C547.074 193.952 544.933 194.479 542.45 194.479ZM542.482 189.206C543.612 189.206 544.554 188.886 545.311 188.247C546.067 187.597 546.637 186.713 547.021 185.594C547.415 184.476 547.612 183.203 547.612 181.775C547.612 180.348 547.415 179.075 547.021 177.956C546.637 176.837 546.067 175.953 545.311 175.303C544.554 174.653 543.612 174.328 542.482 174.328C541.342 174.328 540.384 174.653 539.606 175.303C538.839 175.953 538.258 176.837 537.864 177.956C537.48 179.075 537.289 180.348 537.289 181.775C537.289 183.203 537.48 184.476 537.864 185.594C538.258 186.713 538.839 187.597 539.606 188.247C540.384 188.886 541.342 189.206 542.482 189.206Z" fill="#9498FF"/>
<path d="M565.765 179.81V194H558.958V169.454H565.446V173.785H565.733C566.277 172.358 567.188 171.228 568.466 170.397C569.744 169.556 571.294 169.135 573.116 169.135C574.821 169.135 576.307 169.508 577.575 170.254C578.842 170.999 579.828 172.065 580.531 173.45C581.234 174.824 581.586 176.464 581.586 178.371V194H574.778V179.586C574.789 178.084 574.405 176.912 573.628 176.07C572.85 175.218 571.779 174.792 570.416 174.792C569.499 174.792 568.69 174.989 567.987 175.383C567.294 175.777 566.751 176.353 566.357 177.109C565.973 177.855 565.776 178.755 565.765 179.81Z" fill="#9498FF"/>
</svg>
