<svg width="64" height="65" viewBox="0 0 64 65" fill="none" xmlns="http://www.w3.org/2000/svg">
<path fill-rule="evenodd" clip-rule="evenodd" d="M32 56.875C45.2547 56.875 56 45.9618 56 32.5C56 19.0382 45.2547 8.125 32 8.125C18.7453 8.125 8.00001 19.0382 8.00001 32.5C8.00001 45.9618 18.7453 56.875 32 56.875ZM32 59.5833C46.728 59.5833 58.6667 47.4581 58.6667 32.5C58.6667 17.5419 46.728 5.41666 32 5.41666C17.272 5.41666 5.33334 17.5419 5.33334 32.5C5.33334 47.4581 17.272 59.5833 32 59.5833Z" fill="white"/>
<path fill-rule="evenodd" clip-rule="evenodd" d="M21.6293 43.0327C21.3794 42.7788 21.239 42.4344 21.239 42.0753C21.239 41.7162 21.3794 41.3719 21.6293 41.1179L40.4853 21.9673C40.7368 21.7206 41.0736 21.5841 41.4232 21.5872C41.7728 21.5903 42.1072 21.7327 42.3544 21.9838C42.6016 22.2349 42.7419 22.5745 42.7449 22.9296C42.7479 23.2846 42.6135 23.6267 42.3707 23.8821L23.5147 43.0327C23.2646 43.2866 22.9256 43.4292 22.572 43.4292C22.2185 43.4292 21.8794 43.2866 21.6293 43.0327Z" fill="white"/>
<path fill-rule="evenodd" clip-rule="evenodd" d="M21.6293 21.9673C21.8794 21.7134 22.2185 21.5708 22.572 21.5708C22.9256 21.5708 23.2646 21.7134 23.5147 21.9673L42.3707 41.1179C42.6135 41.3733 42.7479 41.7154 42.7449 42.0704C42.7419 42.4255 42.6016 42.7651 42.3544 43.0162C42.1072 43.2673 41.7728 43.4097 41.4232 43.4128C41.0736 43.4159 40.7368 43.2794 40.4853 43.0327L21.6293 23.8821C21.3794 23.6281 21.239 23.2838 21.239 22.9247C21.239 22.5656 21.3794 22.2212 21.6293 21.9673Z" fill="white"/>
</svg>
