<svg width="65" height="65" viewBox="0 0 65 65" fill="none" xmlns="http://www.w3.org/2000/svg">
<path fill-rule="evenodd" clip-rule="evenodd" d="M32.5 56.875C45.9618 56.875 56.875 45.9618 56.875 32.5C56.875 19.0382 45.9618 8.125 32.5 8.125C19.0382 8.125 8.125 19.0382 8.125 32.5C8.125 45.9618 19.0382 56.875 32.5 56.875ZM32.5 59.5833C47.4581 59.5833 59.5833 47.4581 59.5833 32.5C59.5833 17.5419 47.4581 5.41666 32.5 5.41666C17.5419 5.41666 5.41666 17.5419 5.41666 32.5C5.41666 47.4581 17.5419 59.5833 32.5 59.5833Z" fill="white"/>
<path fill-rule="evenodd" clip-rule="evenodd" d="M46.949 22.0174C47.2154 22.2581 47.3753 22.5947 47.3936 22.9532C47.4118 23.3118 47.287 23.6629 47.0465 23.9295L28.9602 43.9183L18.024 33.4791C17.7784 33.2281 17.6399 32.8916 17.6377 32.5404C17.6355 32.1893 17.7698 31.8511 18.0122 31.5971C18.2546 31.3431 18.5862 31.1931 18.9371 31.1789C19.2879 31.1647 19.6305 31.2873 19.8927 31.5209L28.8167 40.0386L45.0382 22.1135C45.1576 21.9816 45.3018 21.8745 45.4626 21.7983C45.6234 21.7222 45.7976 21.6785 45.9753 21.6697C46.153 21.6608 46.3307 21.6871 46.4982 21.747C46.6658 21.8069 46.8198 21.8993 46.9517 22.0187L46.949 22.0174Z" fill="white"/>
</svg>
